<svg width="44" height="44" viewBox="0 0 44 44" fill="none" xmlns="http://www.w3.org/2000/svg">
<path d="M22 0C17.6488 0 13.3953 1.29028 9.77746 3.70767C6.15958 6.12506 3.33979 9.56099 1.67466 13.581C0.00953218 17.6009 -0.426141 22.0244 0.422734 26.292C1.27161 30.5596 3.3669 34.4796 6.44366 37.5563C9.52041 40.6331 13.4404 42.7284 17.708 43.5773C21.9756 44.4261 26.3991 43.9905 30.419 42.3253C34.439 40.6602 37.8749 37.8404 40.2923 34.2225C42.7097 30.6047 44 26.3512 44 22C43.9927 16.1675 41.6725 10.5759 37.5483 6.45169C33.4241 2.32746 27.8325 0.00727702 22 0ZM24.915 28.7925L22.9625 30.745C22.3307 31.3859 21.5769 31.8937 20.7457 32.2385C19.9144 32.5833 19.0224 32.7581 18.1225 32.7525C16.7643 32.7547 15.4359 32.354 14.3056 31.6009C13.1752 30.8479 12.2937 29.7764 11.7725 28.5222C11.2514 27.2679 11.1141 25.8872 11.378 24.5549C11.6419 23.2225 12.2951 21.9984 13.255 21.0375L15.2075 19.085C15.3316 18.9545 15.4809 18.8507 15.6463 18.7797C15.8118 18.7087 15.99 18.6721 16.17 18.6721C16.35 18.6721 16.5282 18.7087 16.6937 18.7797C16.8591 18.8507 17.0084 18.9545 17.1325 19.085C17.2631 19.2119 17.3668 19.3636 17.4377 19.5313C17.5086 19.699 17.5451 19.8792 17.5451 20.0612C17.5451 20.2433 17.5086 20.4235 17.4377 20.5912C17.3668 20.7589 17.2631 20.9106 17.1325 21.0375L15.18 22.9625C14.4178 23.7408 13.993 24.7881 13.9975 25.8775C13.9901 26.4177 14.0909 26.9539 14.294 27.4546C14.4971 27.9552 14.7984 28.4101 15.18 28.7925C15.564 29.1781 16.0204 29.4841 16.523 29.6929C17.0256 29.9017 17.5645 30.0092 18.1088 30.0092C18.653 30.0092 19.1919 29.9017 19.6945 29.6929C20.1971 29.4841 20.6535 29.1781 21.0375 28.7925L22.9625 26.8675C23.0894 26.7369 23.2411 26.6331 23.4088 26.5623C23.5765 26.4914 23.7567 26.4549 23.9388 26.4549C24.1208 26.4549 24.301 26.4914 24.4687 26.5623C24.6364 26.6331 24.7881 26.7369 24.915 26.8675C25.0455 26.9916 25.1493 27.1409 25.2203 27.3063C25.2913 27.4718 25.3279 27.6499 25.3279 27.83C25.3279 28.01 25.2913 28.1882 25.2203 28.3537C25.1493 28.5191 25.0455 28.6684 24.915 28.7925ZM25.8775 20.0475L20.0475 25.8775C19.9234 26.008 19.7741 26.1118 19.6087 26.1828C19.4432 26.2538 19.265 26.2904 19.085 26.2904C18.905 26.2904 18.7268 26.2538 18.5613 26.1828C18.3959 26.1118 18.2466 26.008 18.1225 25.8775C17.992 25.7534 17.8882 25.6041 17.8172 25.4387C17.7462 25.2732 17.7096 25.095 17.7096 24.915C17.7096 24.735 17.7462 24.5568 17.8172 24.3913C17.8882 24.2259 17.992 24.0766 18.1225 23.9525L23.9525 18.1225C24.0784 17.994 24.2286 17.8917 24.3943 17.8216C24.56 17.7515 24.7379 17.7149 24.9179 17.714C25.0978 17.7131 25.2761 17.7479 25.4425 17.8163C25.6089 17.8848 25.7601 17.9855 25.8873 18.1127C26.0145 18.2399 26.1152 18.3911 26.1837 18.5575C26.2521 18.7239 26.2869 18.9022 26.286 19.0821C26.285 19.2621 26.2485 19.44 26.1784 19.6057C26.1083 19.7714 26.006 19.9216 25.8775 20.0475ZM30.745 22.9625L28.7925 24.915C28.6697 25.0471 28.5207 25.152 28.3549 25.2231C28.1891 25.2941 28.0103 25.3297 27.83 25.3275C27.65 25.3272 27.472 25.2905 27.3066 25.2197C27.1412 25.1488 26.9918 25.0451 26.8675 24.915C26.7369 24.7881 26.6332 24.6364 26.5623 24.4687C26.4914 24.301 26.4549 24.1208 26.4549 23.9387C26.4549 23.7567 26.4914 23.5765 26.5623 23.4088C26.6332 23.2411 26.7369 23.0894 26.8675 22.9625L28.82 21.0375C29.5822 20.2592 30.0071 19.2119 30.0025 18.1225C30.0099 17.5823 29.9091 17.0461 29.706 16.5454C29.5029 16.0448 29.2017 15.5899 28.82 15.2075C28.436 14.8219 27.9796 14.5159 27.477 14.3071C26.9744 14.0983 26.4355 13.9908 25.8913 13.9908C25.347 13.9908 24.8081 14.0983 24.3055 14.3071C23.8029 14.5159 23.3465 14.8219 22.9625 15.2075L21.0375 17.1325C20.9106 17.2631 20.7589 17.3668 20.5912 17.4377C20.4235 17.5086 20.2433 17.5451 20.0613 17.5451C19.8792 17.5451 19.699 17.5086 19.5313 17.4377C19.3636 17.3668 19.2119 17.2631 19.085 17.1325C18.9545 17.0084 18.8507 16.8591 18.7797 16.6937C18.7087 16.5282 18.6721 16.35 18.6721 16.17C18.6721 15.99 18.7087 15.8118 18.7797 15.6463C18.8507 15.4809 18.9545 15.3316 19.085 15.2075L21.0375 13.255C22.3248 11.9677 24.0707 11.2445 25.8913 11.2445C27.7118 11.2445 29.4577 11.9677 30.745 13.255C32.0323 14.5423 32.7555 16.2882 32.7555 18.1087C32.7555 19.9293 32.0323 21.6752 30.745 22.9625Z" fill="#2196F3"/>
</svg>
