<svg id="Component_2_3" data-name="Component 2 – 3" xmlns="http://www.w3.org/2000/svg" xmlns:xlink="http://www.w3.org/1999/xlink" width="44" height="44" viewBox="0 0 44 44">
  <defs>
    <clipPath id="clip-path">
      <circle id="Ellipse_9" data-name="Ellipse 9" cx="22" cy="22" r="22" transform="translate(1686 35)" fill="#765bc5"/>
    </clipPath>
  </defs>
  <circle id="Ellipse_7" data-name="Ellipse 7" cx="22" cy="22" r="22" fill="#3d6ad6"/>
  <circle id="Ellipse_8" data-name="Ellipse 8" cx="1" cy="1" r="1" transform="translate(21 21)" fill="#fff" opacity="0"/>
  <g id="Mask_Group_7" data-name="Mask Group 7" transform="translate(-1686 -35)" clip-path="url(#clip-path)">
    <path id="Path_44536" data-name="Path 44536" d="M31.163,20.162h-2.3c-.362,0-.491-.127-.491-.481q0-1.364,0-2.729c0-.35.137-.483.494-.483h2.295v-1.98a4.832,4.832,0,0,1,.631-2.534,3.81,3.81,0,0,1,2.065-1.669A5.232,5.232,0,0,1,35.628,10L37.9,10c.326,0,.47.141.471.46q0,1.284,0,2.567c0,.323-.139.452-.472.456-.621.007-1.243,0-1.864.027a.833.833,0,0,0-.956.929c-.015.668-.006,1.336-.006,2.028h2.676c.379,0,.508.127.508.5q0,1.357,0,2.714c0,.365-.122.482-.5.482H35.067v7.323c0,.39-.126.515-.522.515h-2.9c-.35,0-.486-.132-.486-.473V20.162Z" transform="translate(1674.626 38)" fill="#fff"/>
    <path id="Path_44537" data-name="Path 44537" d="M31.163,20.162h-2.3c-.362,0-.491-.127-.491-.481q0-1.364,0-2.729c0-.35.137-.483.494-.483h2.295v-1.98a4.832,4.832,0,0,1,.631-2.534,3.81,3.81,0,0,1,2.065-1.669A5.231,5.231,0,0,1,35.628,10L37.9,10c.326,0,.47.141.471.46q0,1.284,0,2.567c0,.323-.139.452-.472.456-.621.007-1.243,0-1.864.027a.833.833,0,0,0-.956.929c-.015.668-.006,1.336-.006,2.028h2.676c.379,0,.508.127.508.5q0,1.357,0,2.714c0,.365-.122.482-.5.482H35.067v7.323c0,.39-.126.515-.522.515h-2.9c-.35,0-.486-.132-.486-.473V20.162Z" transform="translate(1674.626 7)" fill="#3d6ad6"/>
  </g>
</svg>
