<svg width="44" height="44" viewBox="0 0 44 44" fill="none" xmlns="http://www.w3.org/2000/svg">
<g clip-path="url(#clip0_6_6)">
<path d="M22 43.9996C34.1503 43.9996 44 34.1499 44 21.9996C44 9.84934 34.1503 -0.000396729 22 -0.000396729C9.84974 -0.000396729 0 9.84934 0 21.9996C0 34.1499 9.84974 43.9996 22 43.9996Z" fill="#007AB9"/>
<path d="M35.1448 23.7699V32.84H29.8862V24.3777C29.8862 22.2529 29.1269 20.8019 27.2229 20.8019C25.7699 20.8019 24.9068 21.7788 24.5256 22.7247C24.3871 23.0628 24.3515 23.5322 24.3515 24.0063V32.8396H19.0924C19.0924 32.8396 19.163 18.5073 19.0924 17.0237H24.3518V19.265C24.3413 19.2826 24.3264 19.2999 24.3169 19.3168H24.3518V19.265C25.0507 18.1897 26.297 16.6524 29.0912 16.6524C32.551 16.6524 35.1448 18.9128 35.1448 23.7699ZM13.5911 9.39994C11.7922 9.39994 10.6153 10.5808 10.6153 12.1322C10.6153 13.6507 11.7581 14.8656 13.5221 14.8656H13.5562C15.3904 14.8656 16.5308 13.6507 16.5308 12.1322C16.4959 10.5808 15.3904 9.39994 13.5911 9.39994ZM10.9278 32.84H16.1849V17.0237H10.9278V32.84Z" fill="#F1F2F2"/>
</g>
<defs>
<clipPath id="clip0_6_6">
<rect width="44" height="44" fill="white"/>
</clipPath>
</defs>
</svg>
