<svg width="44" height="44" viewBox="0 0 44 44" fill="none" xmlns="http://www.w3.org/2000/svg">
<path d="M22 0C9.8692 0 0 9.8692 0 22C0 34.1308 9.8692 44 22 44C34.1308 44 44 34.1308 44 22C44 9.8692 34.1308 0 22 0ZM11.7333 11.7333H18.3333V13.2H13.2V18.3333H11.7333V11.7333ZM18.3333 32.2667H11.7333V25.6667H13.2V30.8H18.3333V32.2667ZM32.2667 32.2667H25.6667V30.8H30.8V25.6667H32.2667V32.2667ZM32.2667 22.7333H11.7333V21.2667H32.2667V22.7333ZM32.2667 18.3333H30.8V13.2H25.6667V11.7333H32.2667V18.3333Z" fill="black"/>
</svg>
