<svg width="44" height="44" viewBox="0 0 44 44" fill="none" xmlns="http://www.w3.org/2000/svg">
<path d="M22 44C34.1503 44 44 34.1503 44 22C44 9.84974 34.1503 0 22 0C9.84974 0 0 9.84974 0 22C0 34.1503 9.84974 44 22 44Z" fill="#29A71A"/>
<path d="M31.7 12.2997C29.4111 9.98793 26.3714 8.57021 23.1293 8.30224C19.8871 8.03427 16.656 8.9337 14.0186 10.8383C11.3812 12.7429 9.51117 15.5272 8.74589 18.6892C7.98062 21.8511 8.37043 25.1824 9.84503 28.0822L8.39753 35.1097C8.38251 35.1796 8.38209 35.2519 8.39628 35.322C8.41048 35.3922 8.43899 35.4586 8.48003 35.5172C8.54015 35.6061 8.62598 35.6746 8.72604 35.7134C8.82611 35.7523 8.93564 35.7597 9.04003 35.7347L15.9275 34.1022C18.8192 35.5395 22.127 35.9042 25.2623 35.1315C28.3977 34.3589 31.1572 32.4989 33.0499 29.8826C34.9426 27.2663 35.8457 24.0633 35.5985 20.8437C35.3514 17.624 33.9699 14.5964 31.7 12.2997ZM29.5525 29.4397C27.9688 31.0189 25.9295 32.0614 23.7219 32.4202C21.5144 32.779 19.2499 32.4361 17.2475 31.4397L16.2875 30.9647L12.065 31.9647L12.0775 31.9122L12.9525 27.6622L12.4825 26.7347C11.4594 24.7254 11.0985 22.4438 11.4515 20.2168C11.8045 17.9898 12.8532 15.9316 14.4475 14.3372C16.4508 12.3345 19.1674 11.2095 22 11.2095C24.8326 11.2095 27.5493 12.3345 29.5525 14.3372C29.5696 14.3567 29.588 14.3751 29.6075 14.3922C31.586 16.4 32.6904 19.1085 32.6801 21.9273C32.6698 24.746 31.5456 27.4464 29.5525 29.4397Z" fill="white"/>
<path d="M29.1774 26.3221C28.6599 27.1371 27.8424 28.1346 26.8149 28.3821C25.0149 28.8171 22.2524 28.3971 18.8149 25.1921L18.7724 25.1546C15.7499 22.3521 14.9649 20.0196 15.1549 18.1696C15.2599 17.1196 16.1349 16.1696 16.8724 15.5496C16.989 15.4501 17.1272 15.3793 17.2761 15.3427C17.425 15.3062 17.5803 15.305 17.7298 15.3393C17.8792 15.3736 18.0185 15.4423 18.1366 15.54C18.2547 15.6378 18.3483 15.7618 18.4099 15.9021L19.5224 18.4021C19.5947 18.5642 19.6215 18.743 19.5999 18.9191C19.5783 19.0953 19.5092 19.2623 19.3999 19.4021L18.8374 20.1321C18.7167 20.2829 18.6438 20.4663 18.6283 20.6587C18.6127 20.8512 18.655 21.0439 18.7499 21.2121C19.0649 21.7646 19.8199 22.5771 20.6574 23.3296C21.5974 24.1796 22.6399 24.9571 23.2999 25.2221C23.4765 25.2943 23.6706 25.3119 23.8573 25.2727C24.044 25.2335 24.2147 25.1392 24.3474 25.0021L24.9999 24.3446C25.1258 24.2205 25.2823 24.1319 25.4536 24.088C25.6249 24.0441 25.8048 24.0464 25.9749 24.0946L28.6174 24.8446C28.7631 24.8893 28.8968 24.9668 29.008 25.0711C29.1192 25.1753 29.2052 25.3037 29.2592 25.4462C29.3132 25.5888 29.334 25.7419 29.3198 25.8937C29.3056 26.0455 29.2569 26.192 29.1774 26.3221Z" fill="white"/>
</svg>
