<svg width="44" height="44" viewBox="0 0 44 44" fill="none" xmlns="http://www.w3.org/2000/svg">
<g clip-path="url(#clip0_5_14)">
<path d="M22 0C9.85015 0 0 9.85015 0 22C0 34.1498 9.85015 44 22 44C34.1498 44 44 34.1498 44 22C44 9.85015 34.1498 0 22 0Z" fill="#23D2A9"/>
<path d="M23.5594 20.4051L30.7901 12H29.0767L22.7982 19.2981L17.7837 12H12L19.583 23.0359L12 31.85H13.7135L20.3437 24.143L25.6395 31.85H31.4232L23.559 20.4051H23.5594ZM14.3309 13.2899H16.9628L29.0775 30.6187H26.4456L14.3309 13.2899Z" fill="white"/>
</g>
<defs>
<clipPath id="clip0_5_14">
<rect width="44" height="44" fill="white"/>
</clipPath>
</defs>
</svg>
